<?xml version="1.0" standalone="no"?><!DOCTYPE svg PUBLIC "-//W3C//DTD SVG 1.1//EN" "http://www.w3.org/Graphics/SVG/1.1/DTD/svg11.dtd"><svg t="1768458976559" class="icon" viewBox="0 0 1024 1024" version="1.1" xmlns="http://www.w3.org/2000/svg" p-id="1522" xmlns:xlink="http://www.w3.org/1999/xlink" width="200" height="200"><path d="M518.0416 565.5552l-354.56 204.6976V360.8064l354.56-204.6976v409.4464z" fill="#DFCFBD" p-id="1523"></path><path d="M872.6528 770.2528l-354.6112-204.6976V156.1088l354.6112 204.6976v409.4464z" fill="#EFE7DF" p-id="1524"></path><path d="M606.72 180.2752l354.56 204.6976-88.6272-24.1664-354.6112-204.6976 88.6784 24.1664z" fill="#DBCBB9" p-id="1525"></path><path d="M518.0416 156.1088L163.4816 360.8064 47.104 384.9728l354.56-204.6976 116.3776-24.1664z" fill="#DBCBB9" p-id="1526"></path><path d="M758.0672 736.512l-320.2048-184.832V69.3248l320.2048 184.8832v482.304z" fill="#EBEBEC" p-id="1527"></path><path d="M473.1392 48.9984l320.1536 184.8832-35.2256 20.3264-320.2048-184.8832 35.2768-20.3264z" fill="#F6F6F6" p-id="1528"></path><path d="M793.2928 716.1856l-35.2256 20.3264v-482.304l35.2256-20.3264v482.304z" fill="#DCDDDD" p-id="1529"></path><path d="M696.8832 773.2736l-320.2048-184.832v-482.304l320.2048 184.832v482.304z" fill="#EBEBEC" p-id="1530"></path><path d="M411.9552 85.76l320.1536 184.8832-35.2256 20.3264-320.2048-184.832 35.2768-20.3776z" fill="#F6F6F6" p-id="1531"></path><path d="M732.1088 752.9472l-35.2256 20.3264v-482.304l35.2256-20.3264v482.304z" fill="#DCDDDD" p-id="1532"></path><path d="M634.5216 809.6256l-320.2048-184.832V142.4384l320.2048 184.8832v482.304z" fill="#EBEBEC" p-id="1533"></path><path d="M349.5424 122.112l320.2048 184.8832-35.2256 20.3264-320.2048-184.832 35.2256-20.3776z" fill="#F6F6F6" p-id="1534"></path><path d="M288.4608 190.0032l320.1536 184.8832h-35.2256L253.184 190.0032h35.2768z" fill="#F2F2F3" p-id="1535"></path><path d="M514.4064 853.9136h-31.1296l90.112-479.0272h35.2256l-94.208 479.0272z" fill="#DCDDDD" p-id="1536"></path><path d="M507.0336 559.2064v231.4752l67.4816-415.7952-320.2048-184.8832-33.1264 204.1856 285.8496 165.0176z" fill="#EBEBEC" p-id="1537"></path><path d="M669.7472 789.2992l-35.2256 20.3264v-482.304l35.2256-20.3264v482.304z" fill="#DCDDDD" p-id="1538"></path><path d="M872.6528 770.2528l-354.6112 204.7488v-409.4464l354.6112-204.7488v409.4464z" fill="#D39F53" p-id="1539"></path><path d="M976.896 536.7296l-354.56 204.6976-104.2944-175.36 354.6112-204.7488 104.2432 175.4112z" fill="#F2E0C7" p-id="1540"></path><path d="M518.0416 975.0016l-354.56-204.7488V360.8064l354.56 204.7488v409.4464z" fill="#E8B674" p-id="1541"></path><path d="M163.4816 361.3184l354.56 204.7488-88.6272 175.36-354.6112-204.6976 88.6784-175.4112z" fill="#F9F1E8" p-id="1542"></path></svg>